{"title":"The Iceman 2012 480p x264 AAC - VYTO [P2PDL]","uid":8800976,"size":370199422,"categoryP":"video","categoryS":"movies","magnet":"?xt=urn:btih:9e270aca4820c6b3008f33bbbfc613353a390527&amp;dn=The+Iceman+2012+480p+x264+AAC+-+VYTO+%5BP2PDL%5D&amp;tr=udp%3A%2F%2Ftracker.openbittorrent.com%3A80&amp;tr=udp%3A%2F%2Fopen.demonii.com%3A1337&amp;tr=udp%3A%2F%2Ftracker.coppersurfer.tk%3A6969&amp;tr=udp%3A%2F%2Fexodus.desync.com%3A6969","seeders":1,"leechers":1,"uploader":"ValidusVyto","files":-1,"time":1376200275,"description":"_______ Visit us at our Semi Public Bittorrent Community ________\n  &lt;a href=&quot;\nhttp://p2pdl.com&quot; rel=&quot;nofollow&quot; target=&quot;_NEW&quot;&gt;\nhttp://p2pdl.com&lt;/a&gt;  _____________________________ &lt;a href=&quot; http://p2pdl.com&quot; rel=&quot;nofollow&quot; target=&quot;_NEW&quot;&gt; http://p2pdl.com&lt;/a&gt;\n\n\n\nThe Iceman 2012 480p x264 AAC - VYTO\n\n\nGenre: Biography | Crime | Drama\nPlot: The true story of Richard Kuklinski, the notorious contract killer and family\nman. When finally arrested in 1986, neither his wife nor daughters have any clue about\nhis real profession.\nDirector: Ariel Vromen\nStars: Michael Shannon, Winona Ryder, Chris Evans.\nRated: R for strong violence, pervasive language and some sexual content.\n\n\nIMDb: &lt;a href=&quot;\nhttp://www.imdb.com/title/tt1491044/&quot; rel=&quot;nofollow&quot; target=&quot;_NEW&quot;&gt;\nhttp://www.imdb.com/title/tt1491044/&lt;/a&gt;\n\n\nFormat                         : MPEG-4\nFile size                      : 350 MiB\nDuration                       : 1h 45mn\nOverall bit rate               : 464 Kbps\n\nVideo\nFormat                         : AVC\nBit rate                       : 421 Kbps\nWidth                          : 720 pixels\nHeight                         : 400 pixels\nDisplay aspect ratio           : 16:9\nFrame rate mode                : Constant\nFrame rate                     : 23.976 fps\nBit depth                      : 10 bits\nStream size                    : 317 MiB (91%)\nWriting library                : x264 core 133 r2334\n\nAudio\nFormat                         : AAC\nBit rate mode                  : Variable\nBit rate                       : 40.0 Kbps\nChannel(s)                     : 2 channels\nChannel positions              : Front: L R\nSampling rate                  : 48.0 KHz\nStream size                    : 30.2 MiB (9%)\nLanguage                       : English\n\nSubtitle                       : Yes(English)\n\nSource                         : LIMITED.720p.BluRay.x264-ALLiANCE\n &lt;a href=&quot;\nhttp://ultraimg.com/images/qfTB.png&quot; rel=&quot;nofollow&quot; target=&quot;_NEW&quot;&gt;\nhttp://ultraimg.com/images/qfTB.png&lt;/a&gt; &lt;a href=&quot;\nhttp://ultraimg.com/images/gID8L.png&quot; rel=&quot;nofollow&quot; target=&quot;_NEW&quot;&gt;\nhttp://ultraimg.com/images/gID8L.png&lt;/a&gt; &lt;a href=&quot;\nhttp://ultraimg.com/images/dheCy.png&quot; rel=&quot;nofollow&quot; target=&quot;_NEW&quot;&gt;\nhttp://ultraimg.com/images/dheCy.png&lt;/a&gt; &lt;a href=&quot;\nhttp://ultraimg.com/images/qVNC8.png&quot; rel=&quot;nofollow&quot; target=&quot;_NEW&quot;&gt;\nhttp://ultraimg.com/images/qVNC8.png&lt;/a&gt; &lt;a href=&quot;\nhttp://ultraimg.com/images/hHAFL.png&quot; rel=&quot;nofollow&quot; target=&quot;_NEW&quot;&gt;\nhttp://ultraimg.com/images/hHAFL.png&lt;/a&gt; &lt;a href=&quot;\nhttp://ultraimg.com/images/FRXyl.png&quot; rel=&quot;nofollow&quot; target=&quot;_NEW&quot;&gt;\nhttp://ultraimg.com/images/FRXyl.png&lt;/a&gt; &lt;a href=&quot;\nhttp://ultraimg.com/images/tPXd.png&quot; rel=&quot;nofollow&quot; target=&quot;_NEW&quot;&gt;\nhttp://ultraimg.com/images/tPXd.png&lt;/a&gt; &lt;a href=&quot;\nhttp://ultraimg.com/images/hSsLX.png&quot; rel=&quot;nofollow&quot; target=&quot;_NEW&quot;&gt;\nhttp://ultraimg.com/images/hSsLX.png&lt;/a&gt;\n\n----------------------------------------------------------------------------------------------------\n\n\nEncoded using revolutionary 10bit encoding, which enables us to provide you more crispier \nand sharper images at small sizes, just make sure you follow our instructions without a fault.\nRecommend to you to use latest version of VLC player. Install K-Lite Codec Pack or shark007 codecs\nin case of any kind of problem in playback (For non-VLC Media Player users). Alternatively, install\nCore AVC codecs, the fastest decoder that there is coupled with Community Center Codec Pack and play\non Windows Media Player Classic. Check sample to be sure.\nEnjoy!\n\nEncoder Notes:Looking For Early Access To Anything You Can Provide DVDScr, R5, DVDR, BluRay, Direct\nAudio, Music Releases and Seedboxes. We require dedicated servers, so as to do more \nand fast releases of movies.\nIf You Got anything to offer please contact us at &quot;&lt;a class=&quot;__cf_email__&quot; href=&quot;/cdn-cgi/l/email-protection&quot; data-cfemail=&quot;79090b1e39110c0a11571a1614&quot;&gt;[email&amp;#160;protected]&lt;/a&gt;&lt;script cf-hash='f9e31' type=&quot;text/javascript&quot;&gt;\n/* &lt;![CDATA[ */!function(){try{var t=&quot;currentScript&quot;in document?document.currentScript:function(){for(var t=document.getElementsByTagName(&quot;script&quot;),e=t.length;e--;)if(t[e].getAttribute(&quot;cf-hash&quot;))return t[e]}();if(t&amp;&amp;t.previousSibling){var e,r,n,i,c=t.previousSibling,a=c.getAttribute(&quot;data-cfemail&quot;);if(a){for(e=&quot;&quot;,r=parseInt(a.substr(0,2),16),n=2;a.length-n;n+=2)i=parseInt(a.substr(n,2),16)^r,e+=String.fromCharCode(i);e=document.createTextNode(e),c.parentNode.replaceChild(e,c)}}}catch(u){}}();/* ]]&gt; */&lt;/script&gt;&quot;.\n\nFace book Fan Page:  \nSearch P2PDL on FB, and do hit like!!!\n\nCheck more of our team releases @ &lt;a href=&quot;\nhttp://thepiratebay.se/user/vitamin_x&quot; rel=&quot;nofollow&quot; target=&quot;_NEW&quot;&gt;\nhttp://thepiratebay.se/user/vitamin_x&lt;/a&gt;","torrent":{"xt":"urn:btih:9e270aca4820c6b3008f33bbbfc613353a390527","amp;dn":"The+Iceman+2012+480p+x264+AAC+-+VYTO+%5BP2PDL%5D","amp;tr":["udp%3A%2F%2Ftracker.openbittorrent.com%3A80","udp%3A%2F%2Fopen.demonii.com%3A1337","udp%3A%2F%2Ftracker.coppersurfer.tk%3A6969","udp%3A%2F%2Fexodus.desync.com%3A6969"],"infoHash":"9e270aca4820c6b3008f33bbbfc613353a390527","infoHashBuffer":{"type":"Buffer","data":[158,39,10,202,72,32,198,179,0,143,51,187,191,198,19,53,58,57,5,39]},"announce":[],"urlList":[]}}